<?xml version="1.0" encoding="UTF-8" standalone="no"?>
<svg xmlns="http://www.w3.org/2000/svg" version="1.1" viewBox="0.00 0.00 3804.00 825.00">
<path fill="#044ef4" d="M 18.93 247.67 C 126.99 139.86 194.19 72.93 244.29 22.79 Q 254.73 12.33 268.20 6.71 C 284.47 -0.09 303.67 1.72 319.64 8.86 C 340.08 18.02 352.21 38.14 355.30 59.78 C 357.65 76.24 353.03 91.62 343.15 104.77 Q 340.25 108.63 332.52 116.43 C 258.58 191.04 180.32 268.66 109.87 337.87 C 88.91 358.47 58.50 363.09 32.96 348.70 C 10.51 336.04 -0.28 312.08 0.43 286.94 C 0.84 272.18 8.63 257.94 18.93 247.67 Z"/>
<path fill="#ffffff" d="M 960.39 446.64 C 963.54 452.24 966.91 459.14 970.49 464.34 C 993.93 498.36 1033.44 515.35 1073.97 508.43 C 1093.85 505.04 1113.79 495.71 1123.80 477.84 Q 1130.83 465.29 1131.23 448.84 Q 1131.76 427.06 1117.24 411.22 Q 1110.04 403.36 1093.86 394.31 C 1068.40 380.08 1044.00 369.77 1014.31 357.19 C 1002.51 352.19 986.85 345.07 976.77 339.23 Q 959.07 328.97 948.03 317.00 Q 927.98 295.26 922.97 265.78 C 915.99 224.75 925.71 182.38 957.10 153.67 C 977.69 134.83 1003.47 124.82 1031.25 120.99 C 1082.83 113.89 1127.47 130.62 1164.76 165.50 Q 1170.88 171.22 1175.70 177.88 A 0.64 0.63 50.8 0 1 1175.62 178.72 L 1129.28 221.07 A 0.75 0.75 0.0 0 1 1128.20 221.01 C 1101.30 189.91 1067.70 175.20 1026.45 186.64 C 992.59 196.03 976.82 233.56 996.00 263.54 C 1004.70 277.15 1021.70 287.57 1036.76 295.00 C 1070.99 311.88 1105.54 322.65 1134.24 338.48 C 1159.85 352.61 1180.74 373.57 1190.82 401.12 C 1208.96 450.70 1198.30 505.50 1157.54 540.70 C 1135.92 559.38 1109.13 569.83 1080.56 573.10 C 1039.42 577.82 998.68 571.82 963.91 549.85 Q 938.85 534.02 918.24 507.67 C 912.35 500.14 906.73 489.87 902.04 481.91 A 0.36 0.36 0.0 0 1 902.16 481.42 L 959.39 446.38 A 0.72 0.71 -30.2 0 1 960.39 446.64 Z"/>
<circle fill="#ffffff" cx="1281.63" cy="159.44" r="40.07"/>
<circle fill="#ffffff" cx="3203.24" cy="159.48" r="40.08"/>
<rect fill="#ffffff" x="2411.92" y="125.90" width="64.00" height="442.06" rx="0.62"/>
<path fill="#ffffff" d="M 3000.98 568.00 A 0.61 0.59 -81.4 0 1 3000.41 568.43 L 2925.05 568.43 A 0.36 0.36 0.0 0 1 2924.70 568.16 L 2825.32 212.08 A 1.48 1.48 0.0 0 0 2822.47 212.08 L 2724.33 567.87 A 0.44 0.44 0.0 0 1 2723.91 568.19 L 2648.47 568.19 A 0.58 0.58 0.0 0 1 2647.91 567.77 L 2516.73 126.49 A 0.43 0.43 0.0 0 1 2517.14 125.93 L 2588.24 125.93 A 0.82 0.81 81.9 0 1 2589.02 126.52 L 2686.71 458.88 A 1.25 1.25 0.0 0 0 2689.11 458.86 L 2783.36 126.27 A 0.50 0.50 0.0 0 1 2783.84 125.90 L 2863.72 125.90 A 0.77 0.77 0.0 0 1 2864.46 126.46 L 2959.55 457.93 A 1.54 1.54 0.0 0 0 2962.51 457.94 L 3059.96 126.36 A 0.66 0.66 0.0 0 1 3060.59 125.89 L 3131.38 125.89 A 0.31 0.31 0.0 0 1 3131.68 126.29 L 3000.98 568.00 Z"/>
<path fill="#f72a72" d="M 665.26 449.81 A 0.38 0.38 0.0 0 1 664.93 450.42 Q 659.65 450.03 655.26 450.00 C 633.79 449.85 615.65 457.25 599.45 470.72 Q 594.83 474.56 585.39 484.66 Q 571.30 499.73 552.70 517.47 A 0.68 0.67 46.5 0 1 551.74 517.44 Q 551.73 517.42 548.91 514.65 Q 519.79 486.07 386.10 351.94 Q 376.34 342.15 373.21 337.94 C 359.00 318.78 357.16 296.65 366.03 274.78 Q 376.29 249.46 401.75 240.02 C 420.25 233.16 440.82 233.64 457.98 244.08 Q 463.47 247.42 476.80 260.70 Q 619.85 403.22 662.07 445.95 Q 662.93 446.83 665.26 449.81 Z"/>
<path fill="#ffffff" d="M 1923.39 567.55 Q 1923.28 488.77 1923.36 385.02 Q 1923.37 377.10 1920.39 366.59 C 1914.53 345.97 1898.77 331.74 1877.59 328.26 C 1842.98 322.56 1812.55 342.43 1807.28 377.91 Q 1806.57 382.69 1806.54 394.63 Q 1806.40 464.23 1806.50 567.35 A 0.58 0.58 0.0 0 1 1805.92 567.93 L 1742.06 567.93 A 0.34 0.34 0.0 0 1 1741.72 567.59 L 1741.72 274.34 A 0.47 0.47 0.0 0 1 1742.19 273.87 L 1805.86 273.87 A 0.41 0.40 -90.0 0 1 1806.26 274.28 L 1806.26 295.57 A 0.44 0.44 0.0 0 0 1806.94 295.93 Q 1818.19 288.33 1822.28 285.56 Q 1835.13 276.87 1851.06 271.63 C 1884.57 260.58 1920.30 269.08 1948.31 289.94 C 1975.34 310.06 1988.28 339.92 1988.75 373.25 C 1989.53 427.95 1989.36 478.20 1989.09 563.26 Q 1989.08 564.29 1988.54 567.73 A 0.66 0.65 -85.3 0 1 1987.90 568.28 L 1924.12 568.28 A 0.73 0.73 0.0 0 1 1923.39 567.55 Z"/>
<path fill="#ffffff" d="M 3779.14 492.97 A 0.68 0.68 0.0 0 1 3779.51 493.87 C 3755.38 549.88 3692.91 578.62 3634.43 574.63 C 3596.55 572.04 3561.42 558.87 3534.03 532.56 C 3489.76 490.05 3476.78 425.86 3496.98 368.69 C 3511.29 328.16 3540.71 296.57 3580.20 279.74 C 3613.23 265.67 3652.50 263.57 3686.88 272.66 C 3757.25 291.25 3802.99 360.46 3795.13 432.34 A 0.53 0.53 0.0 0 1 3794.60 432.81 L 3557.45 432.81 A 0.61 0.59 -86.1 0 0 3556.86 433.34 C 3555.51 443.94 3558.28 455.44 3563.01 464.68 Q 3580.34 498.63 3614.38 511.02 C 3658.38 527.03 3697.53 505.97 3724.83 471.94 A 0.73 0.72 -59.8 0 1 3725.67 471.71 L 3779.14 492.97 Z M 3722.00 381.39 C 3714.27 345.70 3676.97 324.86 3642.98 324.95 C 3606.95 325.05 3574.33 346.66 3562.60 381.14 A 0.52 0.51 9.3 0 0 3563.09 381.82 L 3721.65 381.82 A 0.36 0.35 -6.4 0 0 3722.00 381.39 Z"/>
<path fill="#ffffff" d="M 1612.18 540.90 A 0.23 0.23 0.0 0 0 1611.81 540.76 C 1561.12 581.23 1494.41 585.69 1438.86 553.66 Q 1407.98 535.85 1389.49 506.56 C 1349.15 442.64 1358.47 356.08 1415.45 305.12 C 1452.71 271.79 1506.52 259.50 1554.54 272.85 Q 1587.35 281.97 1613.29 304.17 A 0.35 0.34 20.2 0 0 1613.86 303.91 L 1613.86 274.58 A 0.54 0.54 0.0 0 1 1614.40 274.04 L 1679.75 274.04 A 0.56 0.56 0.0 0 1 1680.31 274.60 Q 1680.43 468.05 1680.23 567.73 Q 1680.17 595.73 1669.03 623.83 C 1651.31 668.53 1613.59 702.38 1567.11 715.06 C 1498.08 733.88 1417.66 705.92 1378.83 644.68 A 0.84 0.83 -37.1 0 1 1378.98 643.62 L 1422.97 604.71 A 0.53 0.53 0.0 0 1 1423.77 604.83 C 1444.99 638.27 1477.38 660.52 1517.70 661.54 C 1538.73 662.07 1557.40 656.27 1574.64 644.43 C 1595.70 629.97 1608.76 609.11 1612.52 583.96 Q 1615.65 563.01 1612.18 540.90 Z M 1613.83 420.99 A 91.72 91.72 0.0 0 0 1522.11 329.27 A 91.72 91.72 0.0 0 0 1430.39 420.99 A 91.72 91.72 0.0 0 0 1522.11 512.71 A 91.72 91.72 0.0 0 0 1613.83 420.99 Z"/>
<path fill="#ffffff" d="M 2283.91 567.65 L 2283.91 532.98 A 0.33 0.33 0.0 0 0 2283.35 532.75 C 2256.85 559.61 2223.14 575.01 2185.00 574.80 C 2147.99 574.59 2114.34 562.89 2086.92 537.59 C 2029.38 484.51 2019.80 397.17 2062.92 332.14 C 2071.53 319.14 2082.11 307.31 2094.87 297.76 C 2137.99 265.50 2196.52 257.44 2245.56 281.41 Q 2266.09 291.45 2282.82 307.27 A 0.34 0.34 0.0 0 0 2283.39 307.02 L 2283.39 274.62 A 0.59 0.58 -0.0 0 1 2283.98 274.04 L 2348.83 274.04 A 0.74 0.74 0.0 0 1 2349.57 274.78 L 2349.57 567.69 A 0.59 0.59 0.0 0 1 2348.98 568.28 L 2284.55 568.28 A 0.64 0.63 -0.0 0 1 2283.91 567.65 Z M 2101.7853 418.1549 A 91.85 91.67 -178.2 0 0 2190.7106 512.6648 A 91.85 91.67 -178.2 0 0 2285.3947 423.9251 A 91.85 91.67 -178.2 0 0 2196.4694 329.4152 A 91.85 91.67 -178.2 0 0 2101.7853 418.1549 Z"/>
<path fill="#ffffff" d="M 3364.06 316.07 A 0.25 0.25 0.0 0 0 3364.52 316.21 Q 3369.93 308.39 3374.55 302.06 C 3394.69 274.48 3426.70 261.44 3460.18 271.06 Q 3463.07 271.89 3465.91 273.60 A 0.41 0.41 0.0 0 1 3466.11 273.95 L 3466.11 330.83 A 0.51 0.51 0.0 0 1 3465.58 331.34 C 3456.39 331.06 3444.58 330.33 3436.32 330.61 C 3397.62 331.89 3371.76 360.11 3365.87 397.45 Q 3364.75 404.51 3364.63 418.64 C 3364.32 453.81 3364.39 493.28 3364.48 567.39 A 0.61 0.61 0.0 0 1 3363.87 568.00 L 3299.90 568.00 A 0.25 0.25 0.0 0 1 3299.65 567.75 L 3299.65 274.38 A 0.48 0.47 0.0 0 1 3300.13 273.91 L 3363.41 273.91 A 0.65 0.65 0.0 0 1 3364.06 274.56 L 3364.06 316.07 Z"/>
<rect fill="#ffffff" x="1249.36" y="273.86" width="64.60" height="294.26" rx="0.42"/>
<rect fill="#ffffff" x="3171.11" y="273.94" width="64.70" height="294.22" rx="0.66"/>
<path fill="#f72a72" d="M 52.59 370.92 Q 55.97 370.88 63.58 370.67 C 79.83 370.23 94.59 366.24 107.92 357.23 Q 115.66 352.00 126.98 340.06 Q 131.83 334.94 163.50 302.91 A 0.55 0.55 0.0 0 1 164.21 302.85 Q 166.97 304.86 173.45 311.33 Q 267.72 405.53 334.16 472.05 Q 341.76 479.65 346.01 486.13 Q 363.96 513.46 350.13 546.99 Q 340.74 569.75 318.23 579.21 C 299.25 587.18 277.41 587.73 259.53 577.03 Q 254.06 573.76 241.66 561.38 Q 128.29 448.23 52.34 371.53 A 0.36 0.36 0.0 0 1 52.59 370.92 Z"/>
<path fill="#044ef4" d="M 510.70 577.70 Q 555.96 532.81 607.29 482.29 C 632.93 457.06 671.17 457.55 697.44 481.73 Q 716.22 499.01 716.28 524.74 C 716.32 543.13 710.77 559.92 697.71 572.96 Q 563.93 706.56 471.73 798.23 Q 460.61 809.28 445.27 814.71 C 406.33 828.51 365.19 800.12 361.33 760.02 C 359.46 740.70 366.74 721.92 380.44 707.93 Q 415.71 671.90 510.70 577.70 Z"/>
</svg>
